<?xml version="1.0" encoding="utf-8" standalone="no"?>
<!DOCTYPE svg PUBLIC "-//W3C//DTD SVG 1.1//EN"
  "http://www.w3.org/Graphics/SVG/1.1/DTD/svg11.dtd">
<!-- Created with matplotlib (https://matplotlib.org/) -->
<svg height="232.56pt" version="1.1" viewBox="0 0 557.28 232.56" width="557.28pt" xmlns="http://www.w3.org/2000/svg" xmlns:xlink="http://www.w3.org/1999/xlink">
 <defs>
  <style type="text/css">
*{stroke-linecap:butt;stroke-linejoin:round;}
  </style>
 </defs>
 <g id="figure_1">
  <g id="patch_1">
   <path d="M 0 232.56 
L 557.28 232.56 
L 557.28 0 
L 0 0 
z
" style="fill:#ffffff;"/>
  </g>
  <g id="axes_1">
   <g id="patch_2">
    <path d="M 69.66 206.9784 
L 501.552 206.9784 
L 501.552 27.9072 
L 69.66 27.9072 
z
" style="fill:#ffffff;"/>
   </g>
   <g id="matplotlib.axis_1">
    <g id="xtick_1">
     <g id="line2d_1">
      <defs>
       <path d="M 0 0 
L 0 3.5 
" id="mc384528847" style="stroke:#000000;stroke-width:0.8;"/>
      </defs>
      <g>
       <use style="stroke:#000000;stroke-width:0.8;" x="241.181121" xlink:href="#mc384528847" y="206.9784"/>
      </g>
     </g>
     <g id="text_1">
      <!-- $\mathdefault{10^{1}}$ -->
      <defs>
       <path d="M 12.40625 8.296875 
L 28.515625 8.296875 
L 28.515625 63.921875 
L 10.984375 60.40625 
L 10.984375 69.390625 
L 28.421875 72.90625 
L 38.28125 72.90625 
L 38.28125 8.296875 
L 54.390625 8.296875 
L 54.390625 0 
L 12.40625 0 
z
" id="DejaVuSans-49"/>
       <path d="M 31.78125 66.40625 
Q 24.171875 66.40625 20.328125 58.90625 
Q 16.5 51.421875 16.5 36.375 
Q 16.5 21.390625 20.328125 13.890625 
Q 24.171875 6.390625 31.78125 6.390625 
Q 39.453125 6.390625 43.28125 13.890625 
Q 47.125 21.390625 47.125 36.375 
Q 47.125 51.421875 43.28125 58.90625 
Q 39.453125 66.40625 31.78125 66.40625 
z
M 31.78125 74.21875 
Q 44.046875 74.21875 50.515625 64.515625 
Q 56.984375 54.828125 56.984375 36.375 
Q 56.984375 17.96875 50.515625 8.265625 
Q 44.046875 -1.421875 31.78125 -1.421875 
Q 19.53125 -1.421875 13.0625 8.265625 
Q 6.59375 17.96875 6.59375 36.375 
Q 6.59375 54.828125 13.0625 64.515625 
Q 19.53125 74.21875 31.78125 74.21875 
z
" id="DejaVuSans-48"/>
      </defs>
      <g transform="translate(232.381121 221.576838)scale(0.1 -0.1)">
       <use transform="translate(0 0.684375)" xlink:href="#DejaVuSans-49"/>
       <use transform="translate(63.623047 0.684375)" xlink:href="#DejaVuSans-48"/>
       <use transform="translate(128.203125 38.965625)scale(0.7)" xlink:href="#DejaVuSans-49"/>
      </g>
     </g>
    </g>
    <g id="xtick_2">
     <g id="line2d_2">
      <defs>
       <path d="M 0 0 
L 0 2 
" id="m3e723705f6" style="stroke:#000000;stroke-width:0.6;"/>
      </defs>
      <g>
       <use style="stroke:#000000;stroke-width:0.6;" x="89.291455" xlink:href="#m3e723705f6" y="206.9784"/>
      </g>
     </g>
    </g>
    <g id="xtick_3">
     <g id="line2d_3">
      <g>
       <use style="stroke:#000000;stroke-width:0.6;" x="129.243663" xlink:href="#m3e723705f6" y="206.9784"/>
      </g>
     </g>
     <g id="text_2">
      <!-- $\mathdefault{6\times10^{0}}$ -->
      <defs>
       <path d="M 33.015625 40.375 
Q 26.375 40.375 22.484375 35.828125 
Q 18.609375 31.296875 18.609375 23.390625 
Q 18.609375 15.53125 22.484375 10.953125 
Q 26.375 6.390625 33.015625 6.390625 
Q 39.65625 6.390625 43.53125 10.953125 
Q 47.40625 15.53125 47.40625 23.390625 
Q 47.40625 31.296875 43.53125 35.828125 
Q 39.65625 40.375 33.015625 40.375 
z
M 52.59375 71.296875 
L 52.59375 62.3125 
Q 48.875 64.0625 45.09375 64.984375 
Q 41.3125 65.921875 37.59375 65.921875 
Q 27.828125 65.921875 22.671875 59.328125 
Q 17.53125 52.734375 16.796875 39.40625 
Q 19.671875 43.65625 24.015625 45.921875 
Q 28.375 48.1875 33.59375 48.1875 
Q 44.578125 48.1875 50.953125 41.515625 
Q 57.328125 34.859375 57.328125 23.390625 
Q 57.328125 12.15625 50.6875 5.359375 
Q 44.046875 -1.421875 33.015625 -1.421875 
Q 20.359375 -1.421875 13.671875 8.265625 
Q 6.984375 17.96875 6.984375 36.375 
Q 6.984375 53.65625 15.1875 63.9375 
Q 23.390625 74.21875 37.203125 74.21875 
Q 40.921875 74.21875 44.703125 73.484375 
Q 48.484375 72.75 52.59375 71.296875 
z
" id="DejaVuSans-54"/>
       <path d="M 70.125 53.71875 
L 47.796875 31.296875 
L 70.125 8.984375 
L 64.3125 3.078125 
L 41.890625 25.484375 
L 19.484375 3.078125 
L 13.71875 8.984375 
L 35.984375 31.296875 
L 13.71875 53.71875 
L 19.484375 59.625 
L 41.890625 37.203125 
L 64.3125 59.625 
z
" id="DejaVuSans-215"/>
      </defs>
      <g transform="translate(111.143663 219.976838)scale(0.1 -0.1)">
       <use transform="translate(0 0.765625)" xlink:href="#DejaVuSans-54"/>
       <use transform="translate(83.105469 0.765625)" xlink:href="#DejaVuSans-215"/>
       <use transform="translate(186.376953 0.765625)" xlink:href="#DejaVuSans-49"/>
       <use transform="translate(250 0.765625)" xlink:href="#DejaVuSans-48"/>
       <use transform="translate(314.580078 39.046875)scale(0.7)" xlink:href="#DejaVuSans-48"/>
      </g>
     </g>
    </g>
    <g id="xtick_4">
     <g id="line2d_4">
      <g>
       <use style="stroke:#000000;stroke-width:0.6;" x="163.022773" xlink:href="#m3e723705f6" y="206.9784"/>
      </g>
     </g>
    </g>
    <g id="xtick_5">
     <g id="line2d_5">
      <g>
       <use style="stroke:#000000;stroke-width:0.6;" x="192.28357" xlink:href="#m3e723705f6" y="206.9784"/>
      </g>
     </g>
    </g>
    <g id="xtick_6">
     <g id="line2d_6">
      <g>
       <use style="stroke:#000000;stroke-width:0.6;" x="218.093421" xlink:href="#m3e723705f6" y="206.9784"/>
      </g>
     </g>
    </g>
    <g id="xtick_7">
     <g id="line2d_7">
      <g>
       <use style="stroke:#000000;stroke-width:0.6;" x="393.070787" xlink:href="#m3e723705f6" y="206.9784"/>
      </g>
     </g>
     <g id="text_3">
      <!-- $\mathdefault{2\times10^{1}}$ -->
      <defs>
       <path d="M 19.1875 8.296875 
L 53.609375 8.296875 
L 53.609375 0 
L 7.328125 0 
L 7.328125 8.296875 
Q 12.9375 14.109375 22.625 23.890625 
Q 32.328125 33.6875 34.8125 36.53125 
Q 39.546875 41.84375 41.421875 45.53125 
Q 43.3125 49.21875 43.3125 52.78125 
Q 43.3125 58.59375 39.234375 62.25 
Q 35.15625 65.921875 28.609375 65.921875 
Q 23.96875 65.921875 18.8125 64.3125 
Q 13.671875 62.703125 7.8125 59.421875 
L 7.8125 69.390625 
Q 13.765625 71.78125 18.9375 73 
Q 24.125 74.21875 28.421875 74.21875 
Q 39.75 74.21875 46.484375 68.546875 
Q 53.21875 62.890625 53.21875 53.421875 
Q 53.21875 48.921875 51.53125 44.890625 
Q 49.859375 40.875 45.40625 35.40625 
Q 44.1875 33.984375 37.640625 27.21875 
Q 31.109375 20.453125 19.1875 8.296875 
z
" id="DejaVuSans-50"/>
      </defs>
      <g transform="translate(374.970787 219.976838)scale(0.1 -0.1)">
       <use transform="translate(0 0.684375)" xlink:href="#DejaVuSans-50"/>
       <use transform="translate(83.105469 0.684375)" xlink:href="#DejaVuSans-215"/>
       <use transform="translate(186.376953 0.684375)" xlink:href="#DejaVuSans-49"/>
       <use transform="translate(250 0.684375)" xlink:href="#DejaVuSans-48"/>
       <use transform="translate(314.580078 38.965625)scale(0.7)" xlink:href="#DejaVuSans-49"/>
      </g>
     </g>
    </g>
    <g id="xtick_8">
     <g id="line2d_8">
      <g>
       <use style="stroke:#000000;stroke-width:0.6;" x="481.920545" xlink:href="#m3e723705f6" y="206.9784"/>
      </g>
     </g>
     <g id="text_4">
      <!-- $\mathdefault{3\times10^{1}}$ -->
      <defs>
       <path d="M 40.578125 39.3125 
Q 47.65625 37.796875 51.625 33 
Q 55.609375 28.21875 55.609375 21.1875 
Q 55.609375 10.40625 48.1875 4.484375 
Q 40.765625 -1.421875 27.09375 -1.421875 
Q 22.515625 -1.421875 17.65625 -0.515625 
Q 12.796875 0.390625 7.625 2.203125 
L 7.625 11.71875 
Q 11.71875 9.328125 16.59375 8.109375 
Q 21.484375 6.890625 26.8125 6.890625 
Q 36.078125 6.890625 40.9375 10.546875 
Q 45.796875 14.203125 45.796875 21.1875 
Q 45.796875 27.640625 41.28125 31.265625 
Q 36.765625 34.90625 28.71875 34.90625 
L 20.21875 34.90625 
L 20.21875 43.015625 
L 29.109375 43.015625 
Q 36.375 43.015625 40.234375 45.921875 
Q 44.09375 48.828125 44.09375 54.296875 
Q 44.09375 59.90625 40.109375 62.90625 
Q 36.140625 65.921875 28.71875 65.921875 
Q 24.65625 65.921875 20.015625 65.03125 
Q 15.375 64.15625 9.8125 62.3125 
L 9.8125 71.09375 
Q 15.4375 72.65625 20.34375 73.4375 
Q 25.25 74.21875 29.59375 74.21875 
Q 40.828125 74.21875 47.359375 69.109375 
Q 53.90625 64.015625 53.90625 55.328125 
Q 53.90625 49.265625 50.4375 45.09375 
Q 46.96875 40.921875 40.578125 39.3125 
z
" id="DejaVuSans-51"/>
      </defs>
      <g transform="translate(463.820545 219.976838)scale(0.1 -0.1)">
       <use transform="translate(0 0.684375)" xlink:href="#DejaVuSans-51"/>
       <use transform="translate(83.105469 0.684375)" xlink:href="#DejaVuSans-215"/>
       <use transform="translate(186.376953 0.684375)" xlink:href="#DejaVuSans-49"/>
       <use transform="translate(250 0.684375)" xlink:href="#DejaVuSans-48"/>
       <use transform="translate(314.580078 38.965625)scale(0.7)" xlink:href="#DejaVuSans-49"/>
      </g>
     </g>
    </g>
    <g id="text_5">
     <!-- $p$, polynomial order -->
     <defs>
      <path d="M 49.609375 33.6875 
Q 49.609375 40.875 46.484375 44.671875 
Q 43.359375 48.484375 37.5 48.484375 
Q 33.5 48.484375 29.859375 46.4375 
Q 26.21875 44.390625 23.390625 40.484375 
Q 20.609375 36.625 18.9375 31.15625 
Q 17.28125 25.6875 17.28125 20.3125 
Q 17.28125 13.484375 20.40625 9.796875 
Q 23.53125 6.109375 29.296875 6.109375 
Q 33.546875 6.109375 37.1875 8.109375 
Q 40.828125 10.109375 43.40625 13.921875 
Q 46.1875 17.921875 47.890625 23.34375 
Q 49.609375 28.765625 49.609375 33.6875 
z
M 21.78125 46.390625 
Q 25.390625 51.125 30.296875 53.5625 
Q 35.203125 56 41.21875 56 
Q 49.609375 56 54.25 50.5 
Q 58.890625 45.015625 58.890625 35.109375 
Q 58.890625 27 56 19.65625 
Q 53.125 12.3125 47.703125 6.5 
Q 44.09375 2.640625 39.546875 0.609375 
Q 35.015625 -1.421875 29.984375 -1.421875 
Q 24.171875 -1.421875 20.21875 1 
Q 16.265625 3.421875 14.3125 8.203125 
L 8.6875 -20.796875 
L -0.296875 -20.796875 
L 14.40625 54.6875 
L 23.390625 54.6875 
z
" id="DejaVuSans-Oblique-112"/>
      <path d="M 11.71875 12.40625 
L 22.015625 12.40625 
L 22.015625 4 
L 14.015625 -11.625 
L 7.71875 -11.625 
L 11.71875 4 
z
" id="DejaVuSans-44"/>
      <path id="DejaVuSans-32"/>
      <path d="M 18.109375 8.203125 
L 18.109375 -20.796875 
L 9.078125 -20.796875 
L 9.078125 54.6875 
L 18.109375 54.6875 
L 18.109375 46.390625 
Q 20.953125 51.265625 25.265625 53.625 
Q 29.59375 56 35.59375 56 
Q 45.5625 56 51.78125 48.09375 
Q 58.015625 40.1875 58.015625 27.296875 
Q 58.015625 14.40625 51.78125 6.484375 
Q 45.5625 -1.421875 35.59375 -1.421875 
Q 29.59375 -1.421875 25.265625 0.953125 
Q 20.953125 3.328125 18.109375 8.203125 
z
M 48.6875 27.296875 
Q 48.6875 37.203125 44.609375 42.84375 
Q 40.53125 48.484375 33.40625 48.484375 
Q 26.265625 48.484375 22.1875 42.84375 
Q 18.109375 37.203125 18.109375 27.296875 
Q 18.109375 17.390625 22.1875 11.75 
Q 26.265625 6.109375 33.40625 6.109375 
Q 40.53125 6.109375 44.609375 11.75 
Q 48.6875 17.390625 48.6875 27.296875 
z
" id="DejaVuSans-112"/>
      <path d="M 30.609375 48.390625 
Q 23.390625 48.390625 19.1875 42.75 
Q 14.984375 37.109375 14.984375 27.296875 
Q 14.984375 17.484375 19.15625 11.84375 
Q 23.34375 6.203125 30.609375 6.203125 
Q 37.796875 6.203125 41.984375 11.859375 
Q 46.1875 17.53125 46.1875 27.296875 
Q 46.1875 37.015625 41.984375 42.703125 
Q 37.796875 48.390625 30.609375 48.390625 
z
M 30.609375 56 
Q 42.328125 56 49.015625 48.375 
Q 55.71875 40.765625 55.71875 27.296875 
Q 55.71875 13.875 49.015625 6.21875 
Q 42.328125 -1.421875 30.609375 -1.421875 
Q 18.84375 -1.421875 12.171875 6.21875 
Q 5.515625 13.875 5.515625 27.296875 
Q 5.515625 40.765625 12.171875 48.375 
Q 18.84375 56 30.609375 56 
z
" id="DejaVuSans-111"/>
      <path d="M 9.421875 75.984375 
L 18.40625 75.984375 
L 18.40625 0 
L 9.421875 0 
z
" id="DejaVuSans-108"/>
      <path d="M 32.171875 -5.078125 
Q 28.375 -14.84375 24.75 -17.8125 
Q 21.140625 -20.796875 15.09375 -20.796875 
L 7.90625 -20.796875 
L 7.90625 -13.28125 
L 13.1875 -13.28125 
Q 16.890625 -13.28125 18.9375 -11.515625 
Q 21 -9.765625 23.484375 -3.21875 
L 25.09375 0.875 
L 2.984375 54.6875 
L 12.5 54.6875 
L 29.59375 11.921875 
L 46.6875 54.6875 
L 56.203125 54.6875 
z
" id="DejaVuSans-121"/>
      <path d="M 54.890625 33.015625 
L 54.890625 0 
L 45.90625 0 
L 45.90625 32.71875 
Q 45.90625 40.484375 42.875 44.328125 
Q 39.84375 48.1875 33.796875 48.1875 
Q 26.515625 48.1875 22.3125 43.546875 
Q 18.109375 38.921875 18.109375 30.90625 
L 18.109375 0 
L 9.078125 0 
L 9.078125 54.6875 
L 18.109375 54.6875 
L 18.109375 46.1875 
Q 21.34375 51.125 25.703125 53.5625 
Q 30.078125 56 35.796875 56 
Q 45.21875 56 50.046875 50.171875 
Q 54.890625 44.34375 54.890625 33.015625 
z
" id="DejaVuSans-110"/>
      <path d="M 52 44.1875 
Q 55.375 50.25 60.0625 53.125 
Q 64.75 56 71.09375 56 
Q 79.640625 56 84.28125 50.015625 
Q 88.921875 44.046875 88.921875 33.015625 
L 88.921875 0 
L 79.890625 0 
L 79.890625 32.71875 
Q 79.890625 40.578125 77.09375 44.375 
Q 74.3125 48.1875 68.609375 48.1875 
Q 61.625 48.1875 57.5625 43.546875 
Q 53.515625 38.921875 53.515625 30.90625 
L 53.515625 0 
L 44.484375 0 
L 44.484375 32.71875 
Q 44.484375 40.625 41.703125 44.40625 
Q 38.921875 48.1875 33.109375 48.1875 
Q 26.21875 48.1875 22.15625 43.53125 
Q 18.109375 38.875 18.109375 30.90625 
L 18.109375 0 
L 9.078125 0 
L 9.078125 54.6875 
L 18.109375 54.6875 
L 18.109375 46.1875 
Q 21.1875 51.21875 25.484375 53.609375 
Q 29.78125 56 35.6875 56 
Q 41.65625 56 45.828125 52.96875 
Q 50 49.953125 52 44.1875 
z
" id="DejaVuSans-109"/>
      <path d="M 9.421875 54.6875 
L 18.40625 54.6875 
L 18.40625 0 
L 9.421875 0 
z
M 9.421875 75.984375 
L 18.40625 75.984375 
L 18.40625 64.59375 
L 9.421875 64.59375 
z
" id="DejaVuSans-105"/>
      <path d="M 34.28125 27.484375 
Q 23.390625 27.484375 19.1875 25 
Q 14.984375 22.515625 14.984375 16.5 
Q 14.984375 11.71875 18.140625 8.90625 
Q 21.296875 6.109375 26.703125 6.109375 
Q 34.1875 6.109375 38.703125 11.40625 
Q 43.21875 16.703125 43.21875 25.484375 
L 43.21875 27.484375 
z
M 52.203125 31.203125 
L 52.203125 0 
L 43.21875 0 
L 43.21875 8.296875 
Q 40.140625 3.328125 35.546875 0.953125 
Q 30.953125 -1.421875 24.3125 -1.421875 
Q 15.921875 -1.421875 10.953125 3.296875 
Q 6 8.015625 6 15.921875 
Q 6 25.140625 12.171875 29.828125 
Q 18.359375 34.515625 30.609375 34.515625 
L 43.21875 34.515625 
L 43.21875 35.40625 
Q 43.21875 41.609375 39.140625 45 
Q 35.0625 48.390625 27.6875 48.390625 
Q 23 48.390625 18.546875 47.265625 
Q 14.109375 46.140625 10.015625 43.890625 
L 10.015625 52.203125 
Q 14.9375 54.109375 19.578125 55.046875 
Q 24.21875 56 28.609375 56 
Q 40.484375 56 46.34375 49.84375 
Q 52.203125 43.703125 52.203125 31.203125 
z
" id="DejaVuSans-97"/>
      <path d="M 41.109375 46.296875 
Q 39.59375 47.171875 37.8125 47.578125 
Q 36.03125 48 33.890625 48 
Q 26.265625 48 22.1875 43.046875 
Q 18.109375 38.09375 18.109375 28.8125 
L 18.109375 0 
L 9.078125 0 
L 9.078125 54.6875 
L 18.109375 54.6875 
L 18.109375 46.1875 
Q 20.953125 51.171875 25.484375 53.578125 
Q 30.03125 56 36.53125 56 
Q 37.453125 56 38.578125 55.875 
Q 39.703125 55.765625 41.0625 55.515625 
z
" id="DejaVuSans-114"/>
      <path d="M 45.40625 46.390625 
L 45.40625 75.984375 
L 54.390625 75.984375 
L 54.390625 0 
L 45.40625 0 
L 45.40625 8.203125 
Q 42.578125 3.328125 38.25 0.953125 
Q 33.9375 -1.421875 27.875 -1.421875 
Q 17.96875 -1.421875 11.734375 6.484375 
Q 5.515625 14.40625 5.515625 27.296875 
Q 5.515625 40.1875 11.734375 48.09375 
Q 17.96875 56 27.875 56 
Q 33.9375 56 38.25 53.625 
Q 42.578125 51.265625 45.40625 46.390625 
z
M 14.796875 27.296875 
Q 14.796875 17.390625 18.875 11.75 
Q 22.953125 6.109375 30.078125 6.109375 
Q 37.203125 6.109375 41.296875 11.75 
Q 45.40625 17.390625 45.40625 27.296875 
Q 45.40625 37.203125 41.296875 42.84375 
Q 37.203125 48.484375 30.078125 48.484375 
Q 22.953125 48.484375 18.875 42.84375 
Q 14.796875 37.203125 14.796875 27.296875 
z
" id="DejaVuSans-100"/>
      <path d="M 56.203125 29.59375 
L 56.203125 25.203125 
L 14.890625 25.203125 
Q 15.484375 15.921875 20.484375 11.0625 
Q 25.484375 6.203125 34.421875 6.203125 
Q 39.59375 6.203125 44.453125 7.46875 
Q 49.3125 8.734375 54.109375 11.28125 
L 54.109375 2.78125 
Q 49.265625 0.734375 44.1875 -0.34375 
Q 39.109375 -1.421875 33.890625 -1.421875 
Q 20.796875 -1.421875 13.15625 6.1875 
Q 5.515625 13.8125 5.515625 26.8125 
Q 5.515625 40.234375 12.765625 48.109375 
Q 20.015625 56 32.328125 56 
Q 43.359375 56 49.78125 48.890625 
Q 56.203125 41.796875 56.203125 29.59375 
z
M 47.21875 32.234375 
Q 47.125 39.59375 43.09375 43.984375 
Q 39.0625 48.390625 32.421875 48.390625 
Q 24.90625 48.390625 20.390625 44.140625 
Q 15.875 39.890625 15.1875 32.171875 
z
" id="DejaVuSans-101"/>
     </defs>
     <g transform="translate(236.706 235.256525)scale(0.1 -0.1)">
      <use transform="translate(0 0.015625)" xlink:href="#DejaVuSans-Oblique-112"/>
      <use transform="translate(63.476562 0.015625)" xlink:href="#DejaVuSans-44"/>
      <use transform="translate(95.263672 0.015625)" xlink:href="#DejaVuSans-32"/>
      <use transform="translate(127.050781 0.015625)" xlink:href="#DejaVuSans-112"/>
      <use transform="translate(190.527344 0.015625)" xlink:href="#DejaVuSans-111"/>
      <use transform="translate(251.708984 0.015625)" xlink:href="#DejaVuSans-108"/>
      <use transform="translate(279.492188 0.015625)" xlink:href="#DejaVuSans-121"/>
      <use transform="translate(338.671875 0.015625)" xlink:href="#DejaVuSans-110"/>
      <use transform="translate(402.050781 0.015625)" xlink:href="#DejaVuSans-111"/>
      <use transform="translate(463.232422 0.015625)" xlink:href="#DejaVuSans-109"/>
      <use transform="translate(560.644531 0.015625)" xlink:href="#DejaVuSans-105"/>
      <use transform="translate(588.427734 0.015625)" xlink:href="#DejaVuSans-97"/>
      <use transform="translate(649.707031 0.015625)" xlink:href="#DejaVuSans-108"/>
      <use transform="translate(677.490234 0.015625)" xlink:href="#DejaVuSans-32"/>
      <use transform="translate(709.277344 0.015625)" xlink:href="#DejaVuSans-111"/>
      <use transform="translate(770.458984 0.015625)" xlink:href="#DejaVuSans-114"/>
      <use transform="translate(811.572266 0.015625)" xlink:href="#DejaVuSans-100"/>
      <use transform="translate(875.048828 0.015625)" xlink:href="#DejaVuSans-101"/>
      <use transform="translate(936.572266 0.015625)" xlink:href="#DejaVuSans-114"/>
     </g>
    </g>
   </g>
   <g id="matplotlib.axis_2">
    <g id="ytick_1">
     <g id="line2d_9">
      <defs>
       <path d="M 0 0 
L -3.5 0 
" id="m8eb3795d90" style="stroke:#000000;stroke-width:0.8;"/>
      </defs>
      <g>
       <use style="stroke:#000000;stroke-width:0.8;" x="69.66" xlink:href="#m8eb3795d90" y="196.212935"/>
      </g>
     </g>
     <g id="text_6">
      <!-- $\mathdefault{10^{-6}}$ -->
      <defs>
       <path d="M 10.59375 35.5 
L 73.1875 35.5 
L 73.1875 27.203125 
L 10.59375 27.203125 
z
" id="DejaVuSans-8722"/>
      </defs>
      <g transform="translate(39.16 200.012153)scale(0.1 -0.1)">
       <use transform="translate(0 0.765625)" xlink:href="#DejaVuSans-49"/>
       <use transform="translate(63.623047 0.765625)" xlink:href="#DejaVuSans-48"/>
       <use transform="translate(128.203125 39.046875)scale(0.7)" xlink:href="#DejaVuSans-8722"/>
       <use transform="translate(186.855469 39.046875)scale(0.7)" xlink:href="#DejaVuSans-54"/>
      </g>
     </g>
    </g>
    <g id="ytick_2">
     <g id="line2d_10">
      <g>
       <use style="stroke:#000000;stroke-width:0.8;" x="69.66" xlink:href="#m8eb3795d90" y="167.973157"/>
      </g>
     </g>
     <g id="text_7">
      <!-- $\mathdefault{10^{-5}}$ -->
      <defs>
       <path d="M 10.796875 72.90625 
L 49.515625 72.90625 
L 49.515625 64.59375 
L 19.828125 64.59375 
L 19.828125 46.734375 
Q 21.96875 47.46875 24.109375 47.828125 
Q 26.265625 48.1875 28.421875 48.1875 
Q 40.625 48.1875 47.75 41.5 
Q 54.890625 34.8125 54.890625 23.390625 
Q 54.890625 11.625 47.5625 5.09375 
Q 40.234375 -1.421875 26.90625 -1.421875 
Q 22.3125 -1.421875 17.546875 -0.640625 
Q 12.796875 0.140625 7.71875 1.703125 
L 7.71875 11.625 
Q 12.109375 9.234375 16.796875 8.0625 
Q 21.484375 6.890625 26.703125 6.890625 
Q 35.15625 6.890625 40.078125 11.328125 
Q 45.015625 15.765625 45.015625 23.390625 
Q 45.015625 31 40.078125 35.4375 
Q 35.15625 39.890625 26.703125 39.890625 
Q 22.75 39.890625 18.8125 39.015625 
Q 14.890625 38.140625 10.796875 36.28125 
z
" id="DejaVuSans-53"/>
      </defs>
      <g transform="translate(39.16 171.772376)scale(0.1 -0.1)">
       <use transform="translate(0 0.684375)" xlink:href="#DejaVuSans-49"/>
       <use transform="translate(63.623047 0.684375)" xlink:href="#DejaVuSans-48"/>
       <use transform="translate(128.203125 38.965625)scale(0.7)" xlink:href="#DejaVuSans-8722"/>
       <use transform="translate(186.855469 38.965625)scale(0.7)" xlink:href="#DejaVuSans-53"/>
      </g>
     </g>
    </g>
    <g id="ytick_3">
     <g id="line2d_11">
      <g>
       <use style="stroke:#000000;stroke-width:0.8;" x="69.66" xlink:href="#m8eb3795d90" y="139.73338"/>
      </g>
     </g>
     <g id="text_8">
      <!-- $\mathdefault{10^{-4}}$ -->
      <defs>
       <path d="M 37.796875 64.3125 
L 12.890625 25.390625 
L 37.796875 25.390625 
z
M 35.203125 72.90625 
L 47.609375 72.90625 
L 47.609375 25.390625 
L 58.015625 25.390625 
L 58.015625 17.1875 
L 47.609375 17.1875 
L 47.609375 0 
L 37.796875 0 
L 37.796875 17.1875 
L 4.890625 17.1875 
L 4.890625 26.703125 
z
" id="DejaVuSans-52"/>
      </defs>
      <g transform="translate(39.16 143.532599)scale(0.1 -0.1)">
       <use transform="translate(0 0.684375)" xlink:href="#DejaVuSans-49"/>
       <use transform="translate(63.623047 0.684375)" xlink:href="#DejaVuSans-48"/>
       <use transform="translate(128.203125 38.965625)scale(0.7)" xlink:href="#DejaVuSans-8722"/>
       <use transform="translate(186.855469 38.965625)scale(0.7)" xlink:href="#DejaVuSans-52"/>
      </g>
     </g>
    </g>
    <g id="ytick_4">
     <g id="line2d_12">
      <g>
       <use style="stroke:#000000;stroke-width:0.8;" x="69.66" xlink:href="#m8eb3795d90" y="111.493602"/>
      </g>
     </g>
     <g id="text_9">
      <!-- $\mathdefault{10^{-3}}$ -->
      <g transform="translate(39.16 115.292821)scale(0.1 -0.1)">
       <use transform="translate(0 0.765625)" xlink:href="#DejaVuSans-49"/>
       <use transform="translate(63.623047 0.765625)" xlink:href="#DejaVuSans-48"/>
       <use transform="translate(128.203125 39.046875)scale(0.7)" xlink:href="#DejaVuSans-8722"/>
       <use transform="translate(186.855469 39.046875)scale(0.7)" xlink:href="#DejaVuSans-51"/>
      </g>
     </g>
    </g>
    <g id="ytick_5">
     <g id="line2d_13">
      <g>
       <use style="stroke:#000000;stroke-width:0.8;" x="69.66" xlink:href="#m8eb3795d90" y="83.253825"/>
      </g>
     </g>
     <g id="text_10">
      <!-- $\mathdefault{10^{-2}}$ -->
      <g transform="translate(39.16 87.053044)scale(0.1 -0.1)">
       <use transform="translate(0 0.765625)" xlink:href="#DejaVuSans-49"/>
       <use transform="translate(63.623047 0.765625)" xlink:href="#DejaVuSans-48"/>
       <use transform="translate(128.203125 39.046875)scale(0.7)" xlink:href="#DejaVuSans-8722"/>
       <use transform="translate(186.855469 39.046875)scale(0.7)" xlink:href="#DejaVuSans-50"/>
      </g>
     </g>
    </g>
    <g id="ytick_6">
     <g id="line2d_14">
      <g>
       <use style="stroke:#000000;stroke-width:0.8;" x="69.66" xlink:href="#m8eb3795d90" y="55.014048"/>
      </g>
     </g>
     <g id="text_11">
      <!-- $\mathdefault{10^{-1}}$ -->
      <g transform="translate(39.16 58.813266)scale(0.1 -0.1)">
       <use transform="translate(0 0.684375)" xlink:href="#DejaVuSans-49"/>
       <use transform="translate(63.623047 0.684375)" xlink:href="#DejaVuSans-48"/>
       <use transform="translate(128.203125 38.965625)scale(0.7)" xlink:href="#DejaVuSans-8722"/>
       <use transform="translate(186.855469 38.965625)scale(0.7)" xlink:href="#DejaVuSans-49"/>
      </g>
     </g>
    </g>
    <g id="ytick_7">
     <g id="line2d_15">
      <defs>
       <path d="M 0 0 
L -2 0 
" id="mc7e39ed724" style="stroke:#000000;stroke-width:0.6;"/>
      </defs>
      <g>
       <use style="stroke:#000000;stroke-width:0.6;" x="69.66" xlink:href="#mc7e39ed724" y="207.450672"/>
      </g>
     </g>
    </g>
    <g id="ytick_8">
     <g id="line2d_16">
      <g>
       <use style="stroke:#000000;stroke-width:0.6;" x="69.66" xlink:href="#mc7e39ed724" y="204.713955"/>
      </g>
     </g>
    </g>
    <g id="ytick_9">
     <g id="line2d_17">
      <g>
       <use style="stroke:#000000;stroke-width:0.6;" x="69.66" xlink:href="#mc7e39ed724" y="202.477894"/>
      </g>
     </g>
    </g>
    <g id="ytick_10">
     <g id="line2d_18">
      <g>
       <use style="stroke:#000000;stroke-width:0.6;" x="69.66" xlink:href="#mc7e39ed724" y="200.587331"/>
      </g>
     </g>
    </g>
    <g id="ytick_11">
     <g id="line2d_19">
      <g>
       <use style="stroke:#000000;stroke-width:0.6;" x="69.66" xlink:href="#mc7e39ed724" y="198.949652"/>
      </g>
     </g>
    </g>
    <g id="ytick_12">
     <g id="line2d_20">
      <g>
       <use style="stroke:#000000;stroke-width:0.6;" x="69.66" xlink:href="#mc7e39ed724" y="197.505116"/>
      </g>
     </g>
    </g>
    <g id="ytick_13">
     <g id="line2d_21">
      <g>
       <use style="stroke:#000000;stroke-width:0.6;" x="69.66" xlink:href="#mc7e39ed724" y="187.711915"/>
      </g>
     </g>
    </g>
    <g id="ytick_14">
     <g id="line2d_22">
      <g>
       <use style="stroke:#000000;stroke-width:0.6;" x="69.66" xlink:href="#mc7e39ed724" y="182.739137"/>
      </g>
     </g>
    </g>
    <g id="ytick_15">
     <g id="line2d_23">
      <g>
       <use style="stroke:#000000;stroke-width:0.6;" x="69.66" xlink:href="#mc7e39ed724" y="179.210894"/>
      </g>
     </g>
    </g>
    <g id="ytick_16">
     <g id="line2d_24">
      <g>
       <use style="stroke:#000000;stroke-width:0.6;" x="69.66" xlink:href="#mc7e39ed724" y="176.474177"/>
      </g>
     </g>
    </g>
    <g id="ytick_17">
     <g id="line2d_25">
      <g>
       <use style="stroke:#000000;stroke-width:0.6;" x="69.66" xlink:href="#mc7e39ed724" y="174.238116"/>
      </g>
     </g>
    </g>
    <g id="ytick_18">
     <g id="line2d_26">
      <g>
       <use style="stroke:#000000;stroke-width:0.6;" x="69.66" xlink:href="#mc7e39ed724" y="172.347554"/>
      </g>
     </g>
    </g>
    <g id="ytick_19">
     <g id="line2d_27">
      <g>
       <use style="stroke:#000000;stroke-width:0.6;" x="69.66" xlink:href="#mc7e39ed724" y="170.709874"/>
      </g>
     </g>
    </g>
    <g id="ytick_20">
     <g id="line2d_28">
      <g>
       <use style="stroke:#000000;stroke-width:0.6;" x="69.66" xlink:href="#mc7e39ed724" y="169.265339"/>
      </g>
     </g>
    </g>
    <g id="ytick_21">
     <g id="line2d_29">
      <g>
       <use style="stroke:#000000;stroke-width:0.6;" x="69.66" xlink:href="#mc7e39ed724" y="159.472137"/>
      </g>
     </g>
    </g>
    <g id="ytick_22">
     <g id="line2d_30">
      <g>
       <use style="stroke:#000000;stroke-width:0.6;" x="69.66" xlink:href="#mc7e39ed724" y="154.499359"/>
      </g>
     </g>
    </g>
    <g id="ytick_23">
     <g id="line2d_31">
      <g>
       <use style="stroke:#000000;stroke-width:0.6;" x="69.66" xlink:href="#mc7e39ed724" y="150.971117"/>
      </g>
     </g>
    </g>
    <g id="ytick_24">
     <g id="line2d_32">
      <g>
       <use style="stroke:#000000;stroke-width:0.6;" x="69.66" xlink:href="#mc7e39ed724" y="148.2344"/>
      </g>
     </g>
    </g>
    <g id="ytick_25">
     <g id="line2d_33">
      <g>
       <use style="stroke:#000000;stroke-width:0.6;" x="69.66" xlink:href="#mc7e39ed724" y="145.998339"/>
      </g>
     </g>
    </g>
    <g id="ytick_26">
     <g id="line2d_34">
      <g>
       <use style="stroke:#000000;stroke-width:0.6;" x="69.66" xlink:href="#mc7e39ed724" y="144.107777"/>
      </g>
     </g>
    </g>
    <g id="ytick_27">
     <g id="line2d_35">
      <g>
       <use style="stroke:#000000;stroke-width:0.6;" x="69.66" xlink:href="#mc7e39ed724" y="142.470097"/>
      </g>
     </g>
    </g>
    <g id="ytick_28">
     <g id="line2d_36">
      <g>
       <use style="stroke:#000000;stroke-width:0.6;" x="69.66" xlink:href="#mc7e39ed724" y="141.025561"/>
      </g>
     </g>
    </g>
    <g id="ytick_29">
     <g id="line2d_37">
      <g>
       <use style="stroke:#000000;stroke-width:0.6;" x="69.66" xlink:href="#mc7e39ed724" y="131.23236"/>
      </g>
     </g>
    </g>
    <g id="ytick_30">
     <g id="line2d_38">
      <g>
       <use style="stroke:#000000;stroke-width:0.6;" x="69.66" xlink:href="#mc7e39ed724" y="126.259582"/>
      </g>
     </g>
    </g>
    <g id="ytick_31">
     <g id="line2d_39">
      <g>
       <use style="stroke:#000000;stroke-width:0.6;" x="69.66" xlink:href="#mc7e39ed724" y="122.73134"/>
      </g>
     </g>
    </g>
    <g id="ytick_32">
     <g id="line2d_40">
      <g>
       <use style="stroke:#000000;stroke-width:0.6;" x="69.66" xlink:href="#mc7e39ed724" y="119.994622"/>
      </g>
     </g>
    </g>
    <g id="ytick_33">
     <g id="line2d_41">
      <g>
       <use style="stroke:#000000;stroke-width:0.6;" x="69.66" xlink:href="#mc7e39ed724" y="117.758562"/>
      </g>
     </g>
    </g>
    <g id="ytick_34">
     <g id="line2d_42">
      <g>
       <use style="stroke:#000000;stroke-width:0.6;" x="69.66" xlink:href="#mc7e39ed724" y="115.867999"/>
      </g>
     </g>
    </g>
    <g id="ytick_35">
     <g id="line2d_43">
      <g>
       <use style="stroke:#000000;stroke-width:0.6;" x="69.66" xlink:href="#mc7e39ed724" y="114.23032"/>
      </g>
     </g>
    </g>
    <g id="ytick_36">
     <g id="line2d_44">
      <g>
       <use style="stroke:#000000;stroke-width:0.6;" x="69.66" xlink:href="#mc7e39ed724" y="112.785784"/>
      </g>
     </g>
    </g>
    <g id="ytick_37">
     <g id="line2d_45">
      <g>
       <use style="stroke:#000000;stroke-width:0.6;" x="69.66" xlink:href="#mc7e39ed724" y="102.992582"/>
      </g>
     </g>
    </g>
    <g id="ytick_38">
     <g id="line2d_46">
      <g>
       <use style="stroke:#000000;stroke-width:0.6;" x="69.66" xlink:href="#mc7e39ed724" y="98.019804"/>
      </g>
     </g>
    </g>
    <g id="ytick_39">
     <g id="line2d_47">
      <g>
       <use style="stroke:#000000;stroke-width:0.6;" x="69.66" xlink:href="#mc7e39ed724" y="94.491562"/>
      </g>
     </g>
    </g>
    <g id="ytick_40">
     <g id="line2d_48">
      <g>
       <use style="stroke:#000000;stroke-width:0.6;" x="69.66" xlink:href="#mc7e39ed724" y="91.754845"/>
      </g>
     </g>
    </g>
    <g id="ytick_41">
     <g id="line2d_49">
      <g>
       <use style="stroke:#000000;stroke-width:0.6;" x="69.66" xlink:href="#mc7e39ed724" y="89.518784"/>
      </g>
     </g>
    </g>
    <g id="ytick_42">
     <g id="line2d_50">
      <g>
       <use style="stroke:#000000;stroke-width:0.6;" x="69.66" xlink:href="#mc7e39ed724" y="87.628222"/>
      </g>
     </g>
    </g>
    <g id="ytick_43">
     <g id="line2d_51">
      <g>
       <use style="stroke:#000000;stroke-width:0.6;" x="69.66" xlink:href="#mc7e39ed724" y="85.990542"/>
      </g>
     </g>
    </g>
    <g id="ytick_44">
     <g id="line2d_52">
      <g>
       <use style="stroke:#000000;stroke-width:0.6;" x="69.66" xlink:href="#mc7e39ed724" y="84.546006"/>
      </g>
     </g>
    </g>
    <g id="ytick_45">
     <g id="line2d_53">
      <g>
       <use style="stroke:#000000;stroke-width:0.6;" x="69.66" xlink:href="#mc7e39ed724" y="74.752805"/>
      </g>
     </g>
    </g>
    <g id="ytick_46">
     <g id="line2d_54">
      <g>
       <use style="stroke:#000000;stroke-width:0.6;" x="69.66" xlink:href="#mc7e39ed724" y="69.780027"/>
      </g>
     </g>
    </g>
    <g id="ytick_47">
     <g id="line2d_55">
      <g>
       <use style="stroke:#000000;stroke-width:0.6;" x="69.66" xlink:href="#mc7e39ed724" y="66.251785"/>
      </g>
     </g>
    </g>
    <g id="ytick_48">
     <g id="line2d_56">
      <g>
       <use style="stroke:#000000;stroke-width:0.6;" x="69.66" xlink:href="#mc7e39ed724" y="63.515068"/>
      </g>
     </g>
    </g>
    <g id="ytick_49">
     <g id="line2d_57">
      <g>
       <use style="stroke:#000000;stroke-width:0.6;" x="69.66" xlink:href="#mc7e39ed724" y="61.279007"/>
      </g>
     </g>
    </g>
    <g id="ytick_50">
     <g id="line2d_58">
      <g>
       <use style="stroke:#000000;stroke-width:0.6;" x="69.66" xlink:href="#mc7e39ed724" y="59.388444"/>
      </g>
     </g>
    </g>
    <g id="ytick_51">
     <g id="line2d_59">
      <g>
       <use style="stroke:#000000;stroke-width:0.6;" x="69.66" xlink:href="#mc7e39ed724" y="57.750765"/>
      </g>
     </g>
    </g>
    <g id="ytick_52">
     <g id="line2d_60">
      <g>
       <use style="stroke:#000000;stroke-width:0.6;" x="69.66" xlink:href="#mc7e39ed724" y="56.306229"/>
      </g>
     </g>
    </g>
    <g id="ytick_53">
     <g id="line2d_61">
      <g>
       <use style="stroke:#000000;stroke-width:0.6;" x="69.66" xlink:href="#mc7e39ed724" y="46.513027"/>
      </g>
     </g>
    </g>
    <g id="ytick_54">
     <g id="line2d_62">
      <g>
       <use style="stroke:#000000;stroke-width:0.6;" x="69.66" xlink:href="#mc7e39ed724" y="41.54025"/>
      </g>
     </g>
    </g>
    <g id="ytick_55">
     <g id="line2d_63">
      <g>
       <use style="stroke:#000000;stroke-width:0.6;" x="69.66" xlink:href="#mc7e39ed724" y="38.012007"/>
      </g>
     </g>
    </g>
    <g id="ytick_56">
     <g id="line2d_64">
      <g>
       <use style="stroke:#000000;stroke-width:0.6;" x="69.66" xlink:href="#mc7e39ed724" y="35.27529"/>
      </g>
     </g>
    </g>
    <g id="ytick_57">
     <g id="line2d_65">
      <g>
       <use style="stroke:#000000;stroke-width:0.6;" x="69.66" xlink:href="#mc7e39ed724" y="33.039229"/>
      </g>
     </g>
    </g>
    <g id="ytick_58">
     <g id="line2d_66">
      <g>
       <use style="stroke:#000000;stroke-width:0.6;" x="69.66" xlink:href="#mc7e39ed724" y="31.148667"/>
      </g>
     </g>
    </g>
    <g id="ytick_59">
     <g id="line2d_67">
      <g>
       <use style="stroke:#000000;stroke-width:0.6;" x="69.66" xlink:href="#mc7e39ed724" y="29.510987"/>
      </g>
     </g>
    </g>
    <g id="ytick_60">
     <g id="line2d_68">
      <g>
       <use style="stroke:#000000;stroke-width:0.6;" x="69.66" xlink:href="#mc7e39ed724" y="28.066452"/>
      </g>
     </g>
    </g>
    <g id="text_12">
     <!-- $||u-\tilde{u}||_F$ -->
     <defs>
      <path d="M 21 76.421875 
L 21 -23.578125 
L 12.703125 -23.578125 
L 12.703125 76.421875 
z
" id="DejaVuSans-124"/>
      <path d="M 6.6875 21.6875 
L 13.09375 54.6875 
L 22.125 54.6875 
L 15.71875 22.015625 
Q 15.234375 19.625 15.015625 17.921875 
Q 14.796875 16.21875 14.796875 15.09375 
Q 14.796875 10.9375 17.328125 8.65625 
Q 19.875 6.390625 24.515625 6.390625 
Q 31.734375 6.390625 37 11.265625 
Q 42.28125 16.15625 43.890625 24.421875 
L 49.90625 54.6875 
L 58.890625 54.6875 
L 48.296875 0 
L 39.3125 0 
L 41.109375 8.59375 
Q 37.3125 3.8125 32.0625 1.1875 
Q 26.8125 -1.421875 20.90625 -1.421875 
Q 13.71875 -1.421875 9.71875 2.515625 
Q 5.71875 6.453125 5.71875 13.484375 
Q 5.71875 14.9375 5.953125 17.140625 
Q 6.203125 19.34375 6.6875 21.6875 
z
" id="DejaVuSans-Oblique-117"/>
      <path d="M -25.328125 66.890625 
L -28.109375 69.578125 
Q -29.171875 70.5625 -29.984375 71.015625 
Q -30.796875 71.484375 -31.421875 71.484375 
Q -33.28125 71.484375 -34.15625 69.703125 
Q -35.03125 67.921875 -35.140625 63.921875 
L -41.234375 63.921875 
Q -41.140625 70.515625 -38.640625 74.09375 
Q -36.15625 77.6875 -31.71875 77.6875 
Q -29.859375 77.6875 -28.296875 77 
Q -26.734375 76.3125 -24.9375 74.703125 
L -22.140625 72.015625 
Q -21.078125 71.046875 -20.265625 70.578125 
Q -19.46875 70.125 -18.828125 70.125 
Q -16.96875 70.125 -16.09375 71.90625 
Q -15.21875 73.6875 -15.109375 77.6875 
L -9.015625 77.6875 
Q -9.109375 71.09375 -11.59375 67.5 
Q -14.09375 63.921875 -18.53125 63.921875 
Q -20.390625 63.921875 -21.953125 64.59375 
Q -23.515625 65.28125 -25.328125 66.890625 
z
" id="DejaVuSans-771"/>
      <path d="M 16.890625 72.90625 
L 58.6875 72.90625 
L 57.078125 64.59375 
L 25.09375 64.59375 
L 20.90625 43.109375 
L 49.8125 43.109375 
L 48.1875 34.8125 
L 19.28125 34.8125 
L 12.5 0 
L 2.6875 0 
z
" id="DejaVuSans-Oblique-70"/>
     </defs>
     <g transform="translate(32.76 138.8928)rotate(-90)scale(0.1 -0.1)">
      <use transform="translate(0 0.046875)" xlink:href="#DejaVuSans-124"/>
      <use transform="translate(33.691406 0.046875)" xlink:href="#DejaVuSans-124"/>
      <use transform="translate(67.382812 0.046875)" xlink:href="#DejaVuSans-Oblique-117"/>
      <use transform="translate(150.244141 0.046875)" xlink:href="#DejaVuSans-8722"/>
      <use transform="translate(318.594727 3.3125)" xlink:href="#DejaVuSans-771"/>
      <use transform="translate(253.515625 0.046875)" xlink:href="#DejaVuSans-Oblique-117"/>
      <use transform="translate(316.894531 0.046875)" xlink:href="#DejaVuSans-124"/>
      <use transform="translate(350.585938 0.046875)" xlink:href="#DejaVuSans-124"/>
      <use transform="translate(385.234375 -16.359375)scale(0.7)" xlink:href="#DejaVuSans-Oblique-70"/>
     </g>
    </g>
   </g>
   <g id="line2d_69">
    <path clip-path="url(#p325d5e714b)" d="M 89.291455 70.93169 
L 241.181121 63.188057 
L 330.030879 58.897862 
L 393.070787 55.69977 
L 481.920545 51.053942 
" style="fill:none;stroke:#1f77b4;stroke-linecap:square;stroke-width:1.5;"/>
    <defs>
     <path d="M 0 1.5 
C 0.397805 1.5 0.77937 1.341951 1.06066 1.06066 
C 1.341951 0.77937 1.5 0.397805 1.5 0 
C 1.5 -0.397805 1.341951 -0.77937 1.06066 -1.06066 
C 0.77937 -1.341951 0.397805 -1.5 0 -1.5 
C -0.397805 -1.5 -0.77937 -1.341951 -1.06066 -1.06066 
C -1.341951 -0.77937 -1.5 -0.397805 -1.5 0 
C -1.5 0.397805 -1.341951 0.77937 -1.06066 1.06066 
C -0.77937 1.341951 -0.397805 1.5 0 1.5 
z
" id="mb0c1e74ed1" style="stroke:#1f77b4;"/>
    </defs>
    <g clip-path="url(#p325d5e714b)">
     <use style="fill:#1f77b4;stroke:#1f77b4;" x="89.291455" xlink:href="#mb0c1e74ed1" y="70.93169"/>
     <use style="fill:#1f77b4;stroke:#1f77b4;" x="241.181121" xlink:href="#mb0c1e74ed1" y="63.188057"/>
     <use style="fill:#1f77b4;stroke:#1f77b4;" x="330.030879" xlink:href="#mb0c1e74ed1" y="58.897862"/>
     <use style="fill:#1f77b4;stroke:#1f77b4;" x="393.070787" xlink:href="#mb0c1e74ed1" y="55.69977"/>
     <use style="fill:#1f77b4;stroke:#1f77b4;" x="481.920545" xlink:href="#mb0c1e74ed1" y="51.053942"/>
    </g>
   </g>
   <g id="line2d_70">
    <path clip-path="url(#p325d5e714b)" d="M 89.291455 44.666712 
L 241.181121 198.8388 
L 330.030879 164.436568 
L 393.070787 153.100083 
L 481.920545 147.123962 
" style="fill:none;stroke:#ff7f0e;stroke-linecap:square;stroke-width:1.5;"/>
    <defs>
     <path d="M -0 3 
L 3 -3 
L -3 -3 
z
" id="m264704282a" style="stroke:#ff7f0e;stroke-linejoin:miter;"/>
    </defs>
    <g clip-path="url(#p325d5e714b)">
     <use style="fill:#ff7f0e;stroke:#ff7f0e;stroke-linejoin:miter;" x="89.291455" xlink:href="#m264704282a" y="44.666712"/>
     <use style="fill:#ff7f0e;stroke:#ff7f0e;stroke-linejoin:miter;" x="241.181121" xlink:href="#m264704282a" y="198.8388"/>
     <use style="fill:#ff7f0e;stroke:#ff7f0e;stroke-linejoin:miter;" x="330.030879" xlink:href="#m264704282a" y="164.436568"/>
     <use style="fill:#ff7f0e;stroke:#ff7f0e;stroke-linejoin:miter;" x="393.070787" xlink:href="#m264704282a" y="153.100083"/>
     <use style="fill:#ff7f0e;stroke:#ff7f0e;stroke-linejoin:miter;" x="481.920545" xlink:href="#m264704282a" y="147.123962"/>
    </g>
   </g>
   <g id="line2d_71">
    <path clip-path="url(#p325d5e714b)" d="M 89.291455 40.073529 
L 241.181121 83.831495 
L 330.030879 177.913712 
L 393.070787 162.065887 
L 481.920545 155.95888 
" style="fill:none;stroke:#2ca02c;stroke-linecap:square;stroke-width:1.5;"/>
    <defs>
     <path d="M 0 -3 
L -0.673542 -0.927051 
L -2.85317 -0.927051 
L -1.089814 0.354102 
L -1.763356 2.427051 
L -0 1.145898 
L 1.763356 2.427051 
L 1.089814 0.354102 
L 2.85317 -0.927051 
L 0.673542 -0.927051 
z
" id="mf2411911c6" style="stroke:#2ca02c;stroke-linejoin:bevel;"/>
    </defs>
    <g clip-path="url(#p325d5e714b)">
     <use style="fill:#2ca02c;stroke:#2ca02c;stroke-linejoin:bevel;" x="89.291455" xlink:href="#mf2411911c6" y="40.073529"/>
     <use style="fill:#2ca02c;stroke:#2ca02c;stroke-linejoin:bevel;" x="241.181121" xlink:href="#mf2411911c6" y="83.831495"/>
     <use style="fill:#2ca02c;stroke:#2ca02c;stroke-linejoin:bevel;" x="330.030879" xlink:href="#mf2411911c6" y="177.913712"/>
     <use style="fill:#2ca02c;stroke:#2ca02c;stroke-linejoin:bevel;" x="393.070787" xlink:href="#mf2411911c6" y="162.065887"/>
     <use style="fill:#2ca02c;stroke:#2ca02c;stroke-linejoin:bevel;" x="481.920545" xlink:href="#mf2411911c6" y="155.95888"/>
    </g>
   </g>
   <g id="line2d_72">
    <path clip-path="url(#p325d5e714b)" d="M 89.291455 38.220127 
L 241.181121 47.5652 
L 330.030879 168.090229 
L 393.070787 179.1981 
L 481.920545 161.253705 
" style="fill:none;stroke:#d62728;stroke-linecap:square;stroke-width:1.5;"/>
    <defs>
     <path d="M -0 4.242641 
L 4.242641 0 
L 0 -4.242641 
L -4.242641 -0 
z
" id="me2e36a3e00" style="stroke:#d62728;stroke-linejoin:miter;"/>
    </defs>
    <g clip-path="url(#p325d5e714b)">
     <use style="fill:#d62728;stroke:#d62728;stroke-linejoin:miter;" x="89.291455" xlink:href="#me2e36a3e00" y="38.220127"/>
     <use style="fill:#d62728;stroke:#d62728;stroke-linejoin:miter;" x="241.181121" xlink:href="#me2e36a3e00" y="47.5652"/>
     <use style="fill:#d62728;stroke:#d62728;stroke-linejoin:miter;" x="330.030879" xlink:href="#me2e36a3e00" y="168.090229"/>
     <use style="fill:#d62728;stroke:#d62728;stroke-linejoin:miter;" x="393.070787" xlink:href="#me2e36a3e00" y="179.1981"/>
     <use style="fill:#d62728;stroke:#d62728;stroke-linejoin:miter;" x="481.920545" xlink:href="#me2e36a3e00" y="161.253705"/>
    </g>
   </g>
   <g id="line2d_73">
    <path clip-path="url(#p325d5e714b)" d="M 89.291455 36.0468 
L 241.181121 40.784689 
L 330.030879 48.245527 
L 393.070787 166.917606 
L 481.920545 172.47194 
" style="fill:none;stroke:#9467bd;stroke-linecap:square;stroke-width:1.5;"/>
    <defs>
     <path d="M -3 3 
L 3 3 
L 3 -3 
L -3 -3 
z
" id="meb4022b459" style="stroke:#9467bd;stroke-linejoin:miter;"/>
    </defs>
    <g clip-path="url(#p325d5e714b)">
     <use style="fill:#9467bd;stroke:#9467bd;stroke-linejoin:miter;" x="89.291455" xlink:href="#meb4022b459" y="36.0468"/>
     <use style="fill:#9467bd;stroke:#9467bd;stroke-linejoin:miter;" x="241.181121" xlink:href="#meb4022b459" y="40.784689"/>
     <use style="fill:#9467bd;stroke:#9467bd;stroke-linejoin:miter;" x="330.030879" xlink:href="#meb4022b459" y="48.245527"/>
     <use style="fill:#9467bd;stroke:#9467bd;stroke-linejoin:miter;" x="393.070787" xlink:href="#meb4022b459" y="166.917606"/>
     <use style="fill:#9467bd;stroke:#9467bd;stroke-linejoin:miter;" x="481.920545" xlink:href="#meb4022b459" y="172.47194"/>
    </g>
   </g>
   <g id="patch_3">
    <path d="M 69.66 206.9784 
L 69.66 27.9072 
" style="fill:none;stroke:#000000;stroke-linecap:square;stroke-linejoin:miter;stroke-width:0.8;"/>
   </g>
   <g id="patch_4">
    <path d="M 501.552 206.9784 
L 501.552 27.9072 
" style="fill:none;stroke:#000000;stroke-linecap:square;stroke-linejoin:miter;stroke-width:0.8;"/>
   </g>
   <g id="patch_5">
    <path d="M 69.66 206.9784 
L 501.552 206.9784 
" style="fill:none;stroke:#000000;stroke-linecap:square;stroke-linejoin:miter;stroke-width:0.8;"/>
   </g>
   <g id="patch_6">
    <path d="M 69.66 27.9072 
L 501.552 27.9072 
" style="fill:none;stroke:#000000;stroke-linecap:square;stroke-linejoin:miter;stroke-width:0.8;"/>
   </g>
   <g id="text_13">
    <!-- $\Omega_2$ Error and Polynomial Order -->
    <defs>
     <path d="M 72.609375 8.6875 
L 72.609375 0 
L 43.3125 0 
L 43.3125 8.6875 
Q 51.953125 13.421875 56.78125 21.53125 
Q 61.625 29.640625 61.625 39.5 
Q 61.625 51.21875 55.171875 58.296875 
Q 48.734375 65.375 38.1875 65.375 
Q 27.640625 65.375 21.171875 58.265625 
Q 14.703125 51.171875 14.703125 39.5 
Q 14.703125 29.640625 19.53125 21.53125 
Q 24.421875 13.421875 33.109375 8.6875 
L 33.109375 0 
L 3.8125 0 
L 3.8125 8.6875 
L 19.390625 8.6875 
Q 11.671875 15.484375 8.109375 22.75 
Q 4.59375 30.03125 4.59375 39.015625 
Q 4.59375 54.546875 13.96875 64.15625 
Q 23.296875 73.78125 38.1875 73.78125 
Q 52.984375 73.78125 62.40625 64.15625 
Q 71.78125 54.59375 71.78125 39.5 
Q 71.78125 30.03125 68.3125 22.796875 
Q 64.84375 15.578125 56.984375 8.6875 
z
" id="DejaVuSans-937"/>
     <path d="M 9.8125 72.90625 
L 55.90625 72.90625 
L 55.90625 64.59375 
L 19.671875 64.59375 
L 19.671875 43.015625 
L 54.390625 43.015625 
L 54.390625 34.71875 
L 19.671875 34.71875 
L 19.671875 8.296875 
L 56.78125 8.296875 
L 56.78125 0 
L 9.8125 0 
z
" id="DejaVuSans-69"/>
     <path d="M 19.671875 64.796875 
L 19.671875 37.40625 
L 32.078125 37.40625 
Q 38.96875 37.40625 42.71875 40.96875 
Q 46.484375 44.53125 46.484375 51.125 
Q 46.484375 57.671875 42.71875 61.234375 
Q 38.96875 64.796875 32.078125 64.796875 
z
M 9.8125 72.90625 
L 32.078125 72.90625 
Q 44.34375 72.90625 50.609375 67.359375 
Q 56.890625 61.8125 56.890625 51.125 
Q 56.890625 40.328125 50.609375 34.8125 
Q 44.34375 29.296875 32.078125 29.296875 
L 19.671875 29.296875 
L 19.671875 0 
L 9.8125 0 
z
" id="DejaVuSans-80"/>
     <path d="M 39.40625 66.21875 
Q 28.65625 66.21875 22.328125 58.203125 
Q 16.015625 50.203125 16.015625 36.375 
Q 16.015625 22.609375 22.328125 14.59375 
Q 28.65625 6.59375 39.40625 6.59375 
Q 50.140625 6.59375 56.421875 14.59375 
Q 62.703125 22.609375 62.703125 36.375 
Q 62.703125 50.203125 56.421875 58.203125 
Q 50.140625 66.21875 39.40625 66.21875 
z
M 39.40625 74.21875 
Q 54.734375 74.21875 63.90625 63.9375 
Q 73.09375 53.65625 73.09375 36.375 
Q 73.09375 19.140625 63.90625 8.859375 
Q 54.734375 -1.421875 39.40625 -1.421875 
Q 24.03125 -1.421875 14.8125 8.828125 
Q 5.609375 19.09375 5.609375 36.375 
Q 5.609375 53.65625 14.8125 63.9375 
Q 24.03125 74.21875 39.40625 74.21875 
z
" id="DejaVuSans-79"/>
    </defs>
    <g transform="translate(194.346 21.9072)scale(0.12 -0.12)">
     <use transform="translate(0 0.015625)" xlink:href="#DejaVuSans-937"/>
     <use transform="translate(77.373047 -16.390625)scale(0.7)" xlink:href="#DejaVuSans-50"/>
     <use transform="translate(124.643555 0.015625)" xlink:href="#DejaVuSans-32"/>
     <use transform="translate(156.430664 0.015625)" xlink:href="#DejaVuSans-69"/>
     <use transform="translate(219.614258 0.015625)" xlink:href="#DejaVuSans-114"/>
     <use transform="translate(260.727539 0.015625)" xlink:href="#DejaVuSans-114"/>
     <use transform="translate(301.84082 0.015625)" xlink:href="#DejaVuSans-111"/>
     <use transform="translate(363.022461 0.015625)" xlink:href="#DejaVuSans-114"/>
     <use transform="translate(404.135742 0.015625)" xlink:href="#DejaVuSans-32"/>
     <use transform="translate(435.922852 0.015625)" xlink:href="#DejaVuSans-97"/>
     <use transform="translate(497.202148 0.015625)" xlink:href="#DejaVuSans-110"/>
     <use transform="translate(560.581055 0.015625)" xlink:href="#DejaVuSans-100"/>
     <use transform="translate(624.057617 0.015625)" xlink:href="#DejaVuSans-32"/>
     <use transform="translate(655.844727 0.015625)" xlink:href="#DejaVuSans-80"/>
     <use transform="translate(716.147461 0.015625)" xlink:href="#DejaVuSans-111"/>
     <use transform="translate(777.329102 0.015625)" xlink:href="#DejaVuSans-108"/>
     <use transform="translate(805.112305 0.015625)" xlink:href="#DejaVuSans-121"/>
     <use transform="translate(864.291992 0.015625)" xlink:href="#DejaVuSans-110"/>
     <use transform="translate(927.670898 0.015625)" xlink:href="#DejaVuSans-111"/>
     <use transform="translate(988.852539 0.015625)" xlink:href="#DejaVuSans-109"/>
     <use transform="translate(1086.264648 0.015625)" xlink:href="#DejaVuSans-105"/>
     <use transform="translate(1114.047852 0.015625)" xlink:href="#DejaVuSans-97"/>
     <use transform="translate(1175.327148 0.015625)" xlink:href="#DejaVuSans-108"/>
     <use transform="translate(1203.110352 0.015625)" xlink:href="#DejaVuSans-32"/>
     <use transform="translate(1234.897461 0.015625)" xlink:href="#DejaVuSans-79"/>
     <use transform="translate(1313.608398 0.015625)" xlink:href="#DejaVuSans-114"/>
     <use transform="translate(1354.72168 0.015625)" xlink:href="#DejaVuSans-100"/>
     <use transform="translate(1418.198242 0.015625)" xlink:href="#DejaVuSans-101"/>
     <use transform="translate(1479.72168 0.015625)" xlink:href="#DejaVuSans-114"/>
    </g>
   </g>
   <g id="legend_1">
    <g id="patch_7">
     <path d="M 76.66 201.9784 
L 192.66 201.9784 
Q 194.66 201.9784 194.66 199.9784 
L 194.66 127.587775 
Q 194.66 125.587775 192.66 125.587775 
L 76.66 125.587775 
Q 74.66 125.587775 74.66 127.587775 
L 74.66 199.9784 
Q 74.66 201.9784 76.66 201.9784 
z
" style="fill:#ffffff;opacity:0.8;stroke:#cccccc;stroke-linejoin:miter;"/>
    </g>
    <g id="line2d_74">
     <path d="M 78.66 133.686213 
L 98.66 133.686213 
" style="fill:none;stroke:#1f77b4;stroke-linecap:square;stroke-width:1.5;"/>
    </g>
    <g id="line2d_75">
     <g>
      <use style="fill:#1f77b4;stroke:#1f77b4;" x="88.66" xlink:href="#mb0c1e74ed1" y="133.686213"/>
     </g>
    </g>
    <g id="text_14">
     <!-- $\Omega_2$ Error, $N_1=$5 -->
     <defs>
      <path d="M 16.890625 72.90625 
L 30.171875 72.90625 
L 50.296875 10.40625 
L 62.5 72.90625 
L 72.125 72.90625 
L 57.90625 0 
L 44.578125 0 
L 24.515625 62.890625 
L 12.3125 0 
L 2.6875 0 
z
" id="DejaVuSans-Oblique-78"/>
      <path d="M 10.59375 45.40625 
L 73.1875 45.40625 
L 73.1875 37.203125 
L 10.59375 37.203125 
z
M 10.59375 25.484375 
L 73.1875 25.484375 
L 73.1875 17.1875 
L 10.59375 17.1875 
z
" id="DejaVuSans-61"/>
     </defs>
     <g transform="translate(106.66 137.186213)scale(0.1 -0.1)">
      <use transform="translate(0 0.21875)" xlink:href="#DejaVuSans-937"/>
      <use transform="translate(77.373047 -16.1875)scale(0.7)" xlink:href="#DejaVuSans-50"/>
      <use transform="translate(124.643555 0.21875)" xlink:href="#DejaVuSans-32"/>
      <use transform="translate(156.430664 0.21875)" xlink:href="#DejaVuSans-69"/>
      <use transform="translate(219.614258 0.21875)" xlink:href="#DejaVuSans-114"/>
      <use transform="translate(260.727539 0.21875)" xlink:href="#DejaVuSans-114"/>
      <use transform="translate(301.84082 0.21875)" xlink:href="#DejaVuSans-111"/>
      <use transform="translate(363.022461 0.21875)" xlink:href="#DejaVuSans-114"/>
      <use transform="translate(404.135742 0.21875)" xlink:href="#DejaVuSans-44"/>
      <use transform="translate(435.922852 0.21875)" xlink:href="#DejaVuSans-32"/>
      <use transform="translate(467.709961 0.21875)" xlink:href="#DejaVuSans-Oblique-78"/>
      <use transform="translate(542.514648 -16.1875)scale(0.7)" xlink:href="#DejaVuSans-49"/>
      <use transform="translate(609.267578 0.21875)" xlink:href="#DejaVuSans-61"/>
      <use transform="translate(712.539062 0.21875)" xlink:href="#DejaVuSans-53"/>
     </g>
    </g>
    <g id="line2d_76">
     <path d="M 78.66 148.364338 
L 98.66 148.364338 
" style="fill:none;stroke:#ff7f0e;stroke-linecap:square;stroke-width:1.5;"/>
    </g>
    <g id="line2d_77">
     <g>
      <use style="fill:#ff7f0e;stroke:#ff7f0e;stroke-linejoin:miter;" x="88.66" xlink:href="#m264704282a" y="148.364338"/>
     </g>
    </g>
    <g id="text_15">
     <!-- $\Omega_2$ Error, $N_1=$10 -->
     <g transform="translate(106.66 151.864338)scale(0.1 -0.1)">
      <use transform="translate(0 0.78125)" xlink:href="#DejaVuSans-937"/>
      <use transform="translate(77.373047 -15.625)scale(0.7)" xlink:href="#DejaVuSans-50"/>
      <use transform="translate(124.643555 0.78125)" xlink:href="#DejaVuSans-32"/>
      <use transform="translate(156.430664 0.78125)" xlink:href="#DejaVuSans-69"/>
      <use transform="translate(219.614258 0.78125)" xlink:href="#DejaVuSans-114"/>
      <use transform="translate(260.727539 0.78125)" xlink:href="#DejaVuSans-114"/>
      <use transform="translate(301.84082 0.78125)" xlink:href="#DejaVuSans-111"/>
      <use transform="translate(363.022461 0.78125)" xlink:href="#DejaVuSans-114"/>
      <use transform="translate(404.135742 0.78125)" xlink:href="#DejaVuSans-44"/>
      <use transform="translate(435.922852 0.78125)" xlink:href="#DejaVuSans-32"/>
      <use transform="translate(467.709961 0.78125)" xlink:href="#DejaVuSans-Oblique-78"/>
      <use transform="translate(542.514648 -15.625)scale(0.7)" xlink:href="#DejaVuSans-49"/>
      <use transform="translate(609.267578 0.78125)" xlink:href="#DejaVuSans-61"/>
      <use transform="translate(712.539062 0.78125)" xlink:href="#DejaVuSans-49"/>
      <use transform="translate(776.162109 0.78125)" xlink:href="#DejaVuSans-48"/>
     </g>
    </g>
    <g id="line2d_78">
     <path d="M 78.66 163.042462 
L 98.66 163.042462 
" style="fill:none;stroke:#2ca02c;stroke-linecap:square;stroke-width:1.5;"/>
    </g>
    <g id="line2d_79">
     <g>
      <use style="fill:#2ca02c;stroke:#2ca02c;stroke-linejoin:bevel;" x="88.66" xlink:href="#mf2411911c6" y="163.042462"/>
     </g>
    </g>
    <g id="text_16">
     <!-- $\Omega_2$ Error, $N_1=$15 -->
     <g transform="translate(106.66 166.542462)scale(0.1 -0.1)">
      <use transform="translate(0 0.21875)" xlink:href="#DejaVuSans-937"/>
      <use transform="translate(77.373047 -16.1875)scale(0.7)" xlink:href="#DejaVuSans-50"/>
      <use transform="translate(124.643555 0.21875)" xlink:href="#DejaVuSans-32"/>
      <use transform="translate(156.430664 0.21875)" xlink:href="#DejaVuSans-69"/>
      <use transform="translate(219.614258 0.21875)" xlink:href="#DejaVuSans-114"/>
      <use transform="translate(260.727539 0.21875)" xlink:href="#DejaVuSans-114"/>
      <use transform="translate(301.84082 0.21875)" xlink:href="#DejaVuSans-111"/>
      <use transform="translate(363.022461 0.21875)" xlink:href="#DejaVuSans-114"/>
      <use transform="translate(404.135742 0.21875)" xlink:href="#DejaVuSans-44"/>
      <use transform="translate(435.922852 0.21875)" xlink:href="#DejaVuSans-32"/>
      <use transform="translate(467.709961 0.21875)" xlink:href="#DejaVuSans-Oblique-78"/>
      <use transform="translate(542.514648 -16.1875)scale(0.7)" xlink:href="#DejaVuSans-49"/>
      <use transform="translate(609.267578 0.21875)" xlink:href="#DejaVuSans-61"/>
      <use transform="translate(712.539062 0.21875)" xlink:href="#DejaVuSans-49"/>
      <use transform="translate(776.162109 0.21875)" xlink:href="#DejaVuSans-53"/>
     </g>
    </g>
    <g id="line2d_80">
     <path d="M 78.66 177.720588 
L 98.66 177.720588 
" style="fill:none;stroke:#d62728;stroke-linecap:square;stroke-width:1.5;"/>
    </g>
    <g id="line2d_81">
     <g>
      <use style="fill:#d62728;stroke:#d62728;stroke-linejoin:miter;" x="88.66" xlink:href="#me2e36a3e00" y="177.720588"/>
     </g>
    </g>
    <g id="text_17">
     <!-- $\Omega_2$ Error, $N_1=$20 -->
     <g transform="translate(106.66 181.220588)scale(0.1 -0.1)">
      <use transform="translate(0 0.78125)" xlink:href="#DejaVuSans-937"/>
      <use transform="translate(77.373047 -15.625)scale(0.7)" xlink:href="#DejaVuSans-50"/>
      <use transform="translate(124.643555 0.78125)" xlink:href="#DejaVuSans-32"/>
      <use transform="translate(156.430664 0.78125)" xlink:href="#DejaVuSans-69"/>
      <use transform="translate(219.614258 0.78125)" xlink:href="#DejaVuSans-114"/>
      <use transform="translate(260.727539 0.78125)" xlink:href="#DejaVuSans-114"/>
      <use transform="translate(301.84082 0.78125)" xlink:href="#DejaVuSans-111"/>
      <use transform="translate(363.022461 0.78125)" xlink:href="#DejaVuSans-114"/>
      <use transform="translate(404.135742 0.78125)" xlink:href="#DejaVuSans-44"/>
      <use transform="translate(435.922852 0.78125)" xlink:href="#DejaVuSans-32"/>
      <use transform="translate(467.709961 0.78125)" xlink:href="#DejaVuSans-Oblique-78"/>
      <use transform="translate(542.514648 -15.625)scale(0.7)" xlink:href="#DejaVuSans-49"/>
      <use transform="translate(609.267578 0.78125)" xlink:href="#DejaVuSans-61"/>
      <use transform="translate(712.539062 0.78125)" xlink:href="#DejaVuSans-50"/>
      <use transform="translate(776.162109 0.78125)" xlink:href="#DejaVuSans-48"/>
     </g>
    </g>
    <g id="line2d_82">
     <path d="M 78.66 192.398713 
L 98.66 192.398713 
" style="fill:none;stroke:#9467bd;stroke-linecap:square;stroke-width:1.5;"/>
    </g>
    <g id="line2d_83">
     <g>
      <use style="fill:#9467bd;stroke:#9467bd;stroke-linejoin:miter;" x="88.66" xlink:href="#meb4022b459" y="192.398713"/>
     </g>
    </g>
    <g id="text_18">
     <!-- $\Omega_2$ Error, $N_1=$30 -->
     <g transform="translate(106.66 195.898713)scale(0.1 -0.1)">
      <use transform="translate(0 0.78125)" xlink:href="#DejaVuSans-937"/>
      <use transform="translate(77.373047 -15.625)scale(0.7)" xlink:href="#DejaVuSans-50"/>
      <use transform="translate(124.643555 0.78125)" xlink:href="#DejaVuSans-32"/>
      <use transform="translate(156.430664 0.78125)" xlink:href="#DejaVuSans-69"/>
      <use transform="translate(219.614258 0.78125)" xlink:href="#DejaVuSans-114"/>
      <use transform="translate(260.727539 0.78125)" xlink:href="#DejaVuSans-114"/>
      <use transform="translate(301.84082 0.78125)" xlink:href="#DejaVuSans-111"/>
      <use transform="translate(363.022461 0.78125)" xlink:href="#DejaVuSans-114"/>
      <use transform="translate(404.135742 0.78125)" xlink:href="#DejaVuSans-44"/>
      <use transform="translate(435.922852 0.78125)" xlink:href="#DejaVuSans-32"/>
      <use transform="translate(467.709961 0.78125)" xlink:href="#DejaVuSans-Oblique-78"/>
      <use transform="translate(542.514648 -15.625)scale(0.7)" xlink:href="#DejaVuSans-49"/>
      <use transform="translate(609.267578 0.78125)" xlink:href="#DejaVuSans-61"/>
      <use transform="translate(712.539062 0.78125)" xlink:href="#DejaVuSans-51"/>
      <use transform="translate(776.162109 0.78125)" xlink:href="#DejaVuSans-48"/>
     </g>
    </g>
   </g>
  </g>
 </g>
 <defs>
  <clipPath id="p325d5e714b">
   <rect height="179.0712" width="431.892" x="69.66" y="27.9072"/>
  </clipPath>
 </defs>
</svg>
